<svg width="158" height="68" viewBox="0 0 158 68" fill="none" xmlns="http://www.w3.org/2000/svg">
<path d="M16.2636 8.29838L23.8637 1.35005L39.7861 49.5625L28.8926 48.9023L16.2636 8.29838Z" fill="white"/>
<path fill-rule="evenodd" clip-rule="evenodd" d="M28.8749 49.0476C26.7805 49.8561 24.5045 50.2993 22.125 50.2993C11.7697 50.2993 3.375 41.9047 3.375 31.5493C3.375 21.194 11.7697 12.7993 22.125 12.7993C26.7978 12.7993 31.0713 14.5086 34.3544 17.3361L30.8275 26.8147C29.267 23.8058 26.1235 21.75 22.5 21.75C17.3223 21.75 13.125 25.9473 13.125 31.125C13.125 36.3027 17.3223 40.5 22.5 40.5C24.9618 40.5 27.2021 39.5511 28.8749 37.999V49.0476Z" fill="#FFD166"/>
<path d="M31.6246 37.2348L33.8509 45.1493L28.817 48.6278L24.9249 35.7633L31.6246 37.2348Z" fill="white"/>
<path d="M43.0706 15.3498L53.0623 15.3498L39.9373 49.3053L29.9998 49.3053L43.0706 15.3498Z" fill="white"/>
<path d="M62.672 44.304C62.32 44.592 61.888 44.808 61.376 44.952C60.88 45.096 60.352 45.168 59.792 45.168C58.384 45.168 57.296 44.8 56.528 44.064C55.76 43.328 55.376 42.256 55.376 40.848V34.68H53.264V32.28H55.376V29.352H58.376V32.28H61.808V34.68H58.376V40.776C58.376 41.4 58.528 41.88 58.832 42.216C59.136 42.536 59.576 42.696 60.152 42.696C60.824 42.696 61.384 42.52 61.832 42.168L62.672 44.304ZM76.766 38.664C76.766 38.872 76.75 39.168 76.718 39.552H66.662C66.838 40.496 67.294 41.248 68.03 41.808C68.782 42.352 69.71 42.624 70.814 42.624C72.222 42.624 73.382 42.16 74.294 41.232L75.902 43.08C75.326 43.768 74.598 44.288 73.718 44.64C72.838 44.992 71.846 45.168 70.742 45.168C69.334 45.168 68.094 44.888 67.022 44.328C65.95 43.768 65.118 42.992 64.526 42C63.95 40.992 63.662 39.856 63.662 38.592C63.662 37.344 63.942 36.224 64.502 35.232C65.078 34.224 65.87 33.44 66.878 32.88C67.886 32.32 69.022 32.04 70.286 32.04C71.534 32.04 72.646 32.32 73.622 32.88C74.614 33.424 75.382 34.2 75.926 35.208C76.486 36.2 76.766 37.352 76.766 38.664ZM70.286 34.44C69.326 34.44 68.51 34.728 67.838 35.304C67.182 35.864 66.782 36.616 66.638 37.56H73.91C73.782 36.632 73.39 35.88 72.734 35.304C72.078 34.728 71.262 34.44 70.286 34.44ZM82.5037 34.056C83.3677 32.712 84.8877 32.04 87.0637 32.04V34.896C86.8077 34.848 86.5757 34.824 86.3677 34.824C85.1997 34.824 84.2877 35.168 83.6317 35.856C82.9757 36.528 82.6477 37.504 82.6477 38.784V45H79.6477V32.184H82.5037V34.056ZM105.785 32.04C107.401 32.04 108.681 32.512 109.625 33.456C110.569 34.384 111.041 35.784 111.041 37.656V45H108.041V38.04C108.041 36.92 107.793 36.08 107.297 35.52C106.801 34.944 106.089 34.656 105.161 34.656C104.153 34.656 103.345 34.992 102.737 35.664C102.129 36.32 101.825 37.264 101.825 38.496V45H98.8246V38.04C98.8246 36.92 98.5766 36.08 98.0806 35.52C97.5846 34.944 96.8726 34.656 95.9446 34.656C94.9206 34.656 94.1046 34.984 93.4966 35.64C92.9046 36.296 92.6086 37.248 92.6086 38.496V45H89.6086V32.184H92.4646V33.816C92.9446 33.24 93.5446 32.8 94.2646 32.496C94.9846 32.192 95.7846 32.04 96.6646 32.04C97.6246 32.04 98.4726 32.224 99.2086 32.592C99.9606 32.944 100.553 33.472 100.985 34.176C101.513 33.504 102.193 32.984 103.025 32.616C103.857 32.232 104.777 32.04 105.785 32.04ZM114.874 32.184H117.874V45H114.874V32.184ZM116.386 30.072C115.842 30.072 115.386 29.904 115.018 29.568C114.65 29.216 114.466 28.784 114.466 28.272C114.466 27.76 114.65 27.336 115.018 27C115.386 26.648 115.842 26.472 116.386 26.472C116.93 26.472 117.386 26.64 117.754 26.976C118.122 27.296 118.306 27.704 118.306 28.2C118.306 28.728 118.122 29.176 117.754 29.544C117.402 29.896 116.946 30.072 116.386 30.072ZM129.084 32.04C130.7 32.04 131.996 32.512 132.972 33.456C133.948 34.4 134.436 35.8 134.436 37.656V45H131.436V38.04C131.436 36.92 131.172 36.08 130.644 35.52C130.116 34.944 129.364 34.656 128.388 34.656C127.284 34.656 126.412 34.992 125.772 35.664C125.132 36.32 124.812 37.272 124.812 38.52V45H121.812V32.184H124.668V33.84C125.164 33.248 125.788 32.8 126.54 32.496C127.292 32.192 128.14 32.04 129.084 32.04ZM143.137 32.04C145.025 32.04 146.465 32.496 147.457 33.408C148.465 34.304 148.969 35.664 148.969 37.488V45H146.137V43.44C145.769 44 145.241 44.432 144.553 44.736C143.881 45.024 143.065 45.168 142.105 45.168C141.145 45.168 140.305 45.008 139.585 44.688C138.865 44.352 138.305 43.896 137.905 43.32C137.521 42.728 137.329 42.064 137.329 41.328C137.329 40.176 137.753 39.256 138.601 38.568C139.465 37.864 140.817 37.512 142.657 37.512H145.969V37.32C145.969 36.424 145.697 35.736 145.153 35.256C144.625 34.776 143.833 34.536 142.777 34.536C142.057 34.536 141.345 34.648 140.641 34.872C139.953 35.096 139.369 35.408 138.889 35.808L137.713 33.624C138.385 33.112 139.193 32.72 140.137 32.448C141.081 32.176 142.081 32.04 143.137 32.04ZM142.729 42.984C143.481 42.984 144.145 42.816 144.721 42.48C145.313 42.128 145.729 41.632 145.969 40.992V39.504H142.873C141.145 39.504 140.281 40.072 140.281 41.208C140.281 41.752 140.497 42.184 140.929 42.504C141.361 42.824 141.961 42.984 142.729 42.984ZM152.82 27.192H155.82V45H152.82V27.192Z" fill="white" fill-opacity="0.8"/>
</svg>
