<svg width="229" height="79" viewBox="0 0 229 79" fill="none" xmlns="http://www.w3.org/2000/svg">
<path d="M21.6848 11.0646L31.8183 1.80014L53.0481 66.0834L38.5234 65.2031L21.6848 11.0646Z" fill="#1D293F"/>
<path fill-rule="evenodd" clip-rule="evenodd" d="M38.4998 65.397C35.7073 66.4749 32.6727 67.0659 29.5 67.0659C15.6929 67.0659 4.5 55.873 4.5 42.0659C4.5 28.2588 15.6929 17.0659 29.5 17.0659C35.7303 17.0659 41.4284 19.345 45.8059 23.1149L41.1034 35.7529C39.0226 31.7411 34.8314 29 29.9999 29C23.0964 29 17.4999 34.5964 17.4999 41.5C17.4999 48.4036 23.0964 54 29.9999 54C33.2824 54 36.2694 52.7347 38.4998 50.6653V65.397Z" fill="#FFD166"/>
<path d="M42.1662 49.6465L45.1346 60.1991L38.4227 64.8371L33.2333 47.6844L42.1662 49.6465Z" fill="#1D293F"/>
<path d="M57.4274 20.4664L70.7497 20.4664L53.2496 65.7404L39.9997 65.7404L57.4274 20.4664Z" fill="#1D293F"/>
<path d="M85.508 63.956C84.98 64.388 84.332 64.712 83.564 64.928C82.82 65.144 82.028 65.252 81.188 65.252C79.076 65.252 77.444 64.7 76.292 63.596C75.14 62.492 74.564 60.884 74.564 58.772V49.52H71.396V45.92H74.564V41.528H79.064V45.92H84.212V49.52H79.064V58.664C79.064 59.6 79.292 60.32 79.748 60.824C80.204 61.304 80.864 61.544 81.728 61.544C82.736 61.544 83.576 61.28 84.248 60.752L85.508 63.956ZM106.649 55.496C106.649 55.808 106.625 56.252 106.577 56.828H91.493C91.757 58.244 92.441 59.372 93.545 60.212C94.673 61.028 96.065 61.436 97.721 61.436C99.833 61.436 101.573 60.74 102.941 59.348L105.353 62.12C104.489 63.152 103.397 63.932 102.077 64.46C100.757 64.988 99.269 65.252 97.613 65.252C95.501 65.252 93.641 64.832 92.033 63.992C90.425 63.152 89.177 61.988 88.289 60.5C87.425 58.988 86.993 57.284 86.993 55.388C86.993 53.516 87.413 51.836 88.253 50.348C89.117 48.836 90.305 47.66 91.817 46.82C93.329 45.98 95.033 45.56 96.929 45.56C98.801 45.56 100.469 45.98 101.933 46.82C103.421 47.636 104.573 48.8 105.389 50.312C106.229 51.8 106.649 53.528 106.649 55.496ZM96.929 49.16C95.489 49.16 94.265 49.592 93.257 50.456C92.273 51.296 91.673 52.424 91.457 53.84H102.365C102.173 52.448 101.585 51.32 100.601 50.456C99.617 49.592 98.393 49.16 96.929 49.16ZM115.256 48.584C116.552 46.568 118.832 45.56 122.096 45.56V49.844C121.712 49.772 121.364 49.736 121.052 49.736C119.3 49.736 117.932 50.252 116.948 51.284C115.964 52.292 115.472 53.756 115.472 55.676V65H110.972V45.776H115.256V48.584ZM150.177 45.56C152.601 45.56 154.521 46.268 155.937 47.684C157.353 49.076 158.061 51.176 158.061 53.984V65H153.561V54.56C153.561 52.88 153.189 51.62 152.445 50.78C151.701 49.916 150.633 49.484 149.241 49.484C147.729 49.484 146.517 49.988 145.605 50.996C144.693 51.98 144.237 53.396 144.237 55.244V65H139.737V54.56C139.737 52.88 139.365 51.62 138.621 50.78C137.877 49.916 136.809 49.484 135.417 49.484C133.881 49.484 132.657 49.976 131.745 50.96C130.857 51.944 130.413 53.372 130.413 55.244V65H125.913V45.776H130.197V48.224C130.917 47.36 131.817 46.7 132.897 46.244C133.977 45.788 135.177 45.56 136.497 45.56C137.937 45.56 139.209 45.836 140.313 46.388C141.441 46.916 142.329 47.708 142.977 48.764C143.769 47.756 144.789 46.976 146.037 46.424C147.285 45.848 148.665 45.56 150.177 45.56ZM163.811 45.776H168.311V65H163.811V45.776ZM166.079 42.608C165.263 42.608 164.579 42.356 164.027 41.852C163.475 41.324 163.199 40.676 163.199 39.908C163.199 39.14 163.475 38.504 164.027 38C164.579 37.472 165.263 37.208 166.079 37.208C166.895 37.208 167.579 37.46 168.131 37.964C168.683 38.444 168.959 39.056 168.959 39.8C168.959 40.592 168.683 41.264 168.131 41.816C167.603 42.344 166.919 42.608 166.079 42.608ZM185.126 45.56C187.55 45.56 189.494 46.268 190.958 47.684C192.422 49.1 193.154 51.2 193.154 53.984V65H188.654V54.56C188.654 52.88 188.258 51.62 187.466 50.78C186.674 49.916 185.546 49.484 184.082 49.484C182.426 49.484 181.118 49.988 180.158 50.996C179.198 51.98 178.718 53.408 178.718 55.28V65H174.218V45.776H178.502V48.26C179.246 47.372 180.182 46.7 181.31 46.244C182.438 45.788 183.71 45.56 185.126 45.56ZM206.206 45.56C209.038 45.56 211.198 46.244 212.686 47.612C214.198 48.956 214.954 50.996 214.954 53.732V65H210.706V62.66C210.154 63.5 209.362 64.148 208.33 64.604C207.322 65.036 206.098 65.252 204.658 65.252C203.218 65.252 201.958 65.012 200.878 64.532C199.798 64.028 198.958 63.344 198.358 62.48C197.782 61.592 197.494 60.596 197.494 59.492C197.494 57.764 198.13 56.384 199.402 55.352C200.698 54.296 202.726 53.768 205.486 53.768H210.454V53.48C210.454 52.136 210.046 51.104 209.23 50.384C208.438 49.664 207.25 49.304 205.666 49.304C204.586 49.304 203.518 49.472 202.462 49.808C201.43 50.144 200.554 50.612 199.834 51.212L198.07 47.936C199.078 47.168 200.29 46.58 201.706 46.172C203.122 45.764 204.622 45.56 206.206 45.56ZM205.594 61.976C206.722 61.976 207.718 61.724 208.582 61.22C209.47 60.692 210.094 59.948 210.454 58.988V56.756H205.81C203.218 56.756 201.922 57.608 201.922 59.312C201.922 60.128 202.246 60.776 202.894 61.256C203.542 61.736 204.442 61.976 205.594 61.976ZM220.729 38.288H225.229V65H220.729V38.288Z" fill="#333333" fill-opacity="0.8"/>
</svg>
