<svg width="160" height="160" viewBox="0 0 160 160" fill="none" xmlns="http://www.w3.org/2000/svg">
<path d="M43.3696 22.1293L63.6366 3.60044L106.096 132.167L77.0469 130.406L43.3696 22.1293Z" fill="#1D293F"/>
<path fill-rule="evenodd" clip-rule="evenodd" d="M76.9996 130.794C71.4146 132.95 65.3453 134.132 59 134.132C31.3858 134.132 9 111.746 9 84.132C9 56.5177 31.3858 34.132 59 34.132C71.4607 34.132 82.8567 38.6901 91.6118 46.23L82.2067 71.5059C78.0453 63.4822 69.6628 58 59.9999 58C46.1928 58 34.9999 69.1929 34.9999 83C34.9999 96.8072 46.1928 108 59.9999 108C66.5649 108 72.5389 105.47 76.9996 101.331V130.794Z" fill="#FFD166"/>
<path d="M84.3325 99.2934L90.2693 120.399L76.8456 129.675L66.4668 95.3693L84.3325 99.2934Z" fill="#1D293F"/>
<path d="M114.855 40.9329L141.5 40.9329L106.5 131.481L79.9996 131.481L114.855 40.9329Z" fill="#1D293F"/>
</svg>
